<svg xmlns="http://www.w3.org/2000/svg" width="52" height="10" viewBox="0 0 52 10"><defs><clipPath id="dofra"><path fill="#fff" d="M0 5.158a4.768 4.768 0 1 1 9.537 0 4.768 4.768 0 0 1-9.537 0z"/></clipPath><clipPath id="dofrb"><path fill="#fff" d="M14 5.158a4.768 4.768 0 1 1 9.537 0 4.768 4.768 0 0 1-9.537 0z"/></clipPath><clipPath id="dofrc"><path fill="#fff" d="M28 5.158a4.768 4.768 0 1 1 9.537 0 4.768 4.768 0 0 1-9.537 0z"/></clipPath><clipPath id="dofrd"><path fill="#fff" d="M42 5.158a4.768 4.768 0 1 1 9.537 0 4.768 4.768 0 0 1-9.537 0z"/></clipPath></defs><g><g><path fill="#387fcb" d="M0 5.158a4.768 4.768 0 1 1 9.537 0 4.768 4.768 0 0 1-9.537 0z"/><path fill="none" stroke="#387fcb" stroke-linecap="round" stroke-miterlimit="50" stroke-width="4" d="M0 5.158a4.768 4.768 0 1 1 9.537 0 4.768 4.768 0 0 1-9.537 0z" clip-path="url(&quot;#dofra&quot;)"/></g><g><path fill="#f7ce44" d="M14 5.158a4.768 4.768 0 1 1 9.537 0 4.768 4.768 0 0 1-9.537 0z"/><path fill="none" stroke="#f7ce44" stroke-linecap="round" stroke-miterlimit="50" stroke-width="4" d="M14 5.158a4.768 4.768 0 1 1 9.537 0 4.768 4.768 0 0 1-9.537 0z" clip-path="url(&quot;#dofrb&quot;)"/></g><g><path fill="#e86a1c" d="M28 5.158a4.768 4.768 0 1 1 9.537 0 4.768 4.768 0 0 1-9.537 0z"/><path fill="none" stroke="#e86a1c" stroke-linecap="round" stroke-miterlimit="50" stroke-width="4" d="M28 5.158a4.768 4.768 0 1 1 9.537 0 4.768 4.768 0 0 1-9.537 0z" clip-path="url(&quot;#dofrc&quot;)"/></g><g><path fill="#e81c1c" d="M42 5.158a4.768 4.768 0 1 1 9.537 0 4.768 4.768 0 0 1-9.537 0z"/><path fill="none" stroke="#e81c1c" stroke-linecap="round" stroke-miterlimit="50" stroke-width="4" d="M42 5.158a4.768 4.768 0 1 1 9.537 0 4.768 4.768 0 0 1-9.537 0z" clip-path="url(&quot;#dofrd&quot;)"/></g></g></svg>