<svg xmlns="http://www.w3.org/2000/svg" width="56" height="12" viewBox="0 0 56 12"><g><g><path fill="#387fcb" d="M1.347 5.936a4.768 4.768 0 1 1 9.537 0 4.768 4.768 0 0 1-9.537 0z"/><path fill="none" stroke="#387fcb" stroke-miterlimit="50" d="M1.347 5.936a4.768 4.768 0 1 1 9.537 0 4.768 4.768 0 0 1-9.537 0z"/></g><g><path fill="#cecece" d="M15.901 5.936a4.768 4.768 0 1 1 9.537 0 4.768 4.768 0 0 1-9.537 0z"/><path fill="none" stroke="#cecece" stroke-miterlimit="50" d="M15.901 5.936a4.768 4.768 0 1 1 9.537 0 4.768 4.768 0 0 1-9.537 0z"/></g><g><path fill="#cecece" d="M30.455 5.936a4.768 4.768 0 1 1 9.537 0 4.768 4.768 0 0 1-9.537 0z"/><path fill="none" stroke="#cecece" stroke-miterlimit="50" d="M30.455 5.936a4.768 4.768 0 1 1 9.537 0 4.768 4.768 0 0 1-9.537 0z"/></g><g><path fill="#cecece" d="M45.01 5.936a4.768 4.768 0 1 1 9.536 0 4.768 4.768 0 0 1-9.537 0z"/><path fill="none" stroke="#cecece" stroke-miterlimit="50" d="M45.01 5.936a4.768 4.768 0 1 1 9.536 0 4.768 4.768 0 0 1-9.537 0z"/></g></g></svg>