<svg xmlns="http://www.w3.org/2000/svg" width="18" height="11" viewBox="0 0 18 11"><g><g><path fill="#ff5912" d="M15.815 8.747a.297.297 0 0 0 .145.036c.1 0 .197-.05.251-.138a.265.265 0 0 0-.107-.375L11.26 5.635l4.879-3.65a.266.266 0 0 0 .048-.386.3.3 0 0 0-.407-.045L9.428 6.307 3.075 1.554a.301.301 0 0 0-.408.045.266.266 0 0 0 .048.386l4.878 3.65L2.75 8.27a.266.266 0 0 0-.108.375.293.293 0 0 0 .252.138c.05 0 .1-.011.144-.036l5.045-2.745 1.164.872c.005.004.015.002.021.007.049.03.102.051.159.051.056 0 .11-.021.158-.051.006-.005.014-.003.02-.007l1.165-.872 5.044 2.745zM.87.825h16.258v9.35H.87zm16.548 9.9c.16 0 .29-.124.29-.276V.55a.284.284 0 0 0-.29-.275H.578C.419.274.29.397.29.549v9.9c0 .152.13.276.29.276z"/></g></g></svg>