<svg xmlns="http://www.w3.org/2000/svg" width="12" height="12" viewBox="0 0 12 12"><g><g><g><path fill="#ff5912" d="M5.605 2.458h4.328v1.573H5.605zm4.525 1.967a.196.196 0 0 0 .197-.196V2.26a.197.197 0 0 0-.197-.196H5.408a.196.196 0 0 0-.196.196V4.23c0 .108.087.196.196.196zm-4.525.787h1.18v1.18h-1.18zm1.574 0h1.18v1.18H7.18zm1.574 0h1.18v1.18h-1.18zM5.605 6.785h1.18v1.181h-1.18zm1.574 0h1.18v1.181H7.18zm1.574 0h1.18v1.181h-1.18zM5.605 8.36h1.18v1.18h-1.18zm1.574 0h1.18v1.18H7.18zm1.574 0h1.18v1.18h-1.18zm1.377 1.574a.197.197 0 0 0 .197-.197V5.015a.197.197 0 0 0-.197-.196H5.408a.196.196 0 0 0-.196.196v4.722c0 .108.087.197.196.197zM4.03.884h7.476v10.23H4.03zm-3-.393h2.066c.298 0 .541.243.541.54v9.935c0 .299-.243.54-.541.54H1.032a.54.54 0 0 1-.541-.54V1.032C.49.734.733.49 1.03.49zM3.098 11.9a.932.932 0 0 0 .761-.394h7.846a.197.197 0 0 0 .196-.196V.688a.197.197 0 0 0-.196-.197H3.858a.934.934 0 0 0-.761-.393H1.032a.935.935 0 0 0-.935.934v9.934c0 .516.419.935.935.935z"/></g></g></g></svg>