<svg xmlns="http://www.w3.org/2000/svg" width="54" height="20" viewBox="0 0 54 20"><defs><clipPath id="q2wsa"><path fill="#fff" d="M21.222 17.504a2.424 2.424 0 1 1 4.848 0 2.424 2.424 0 0 1-4.848 0z"/></clipPath><clipPath id="q2wsb"><path fill="#fff" d="M30.477 17.504a2.424 2.424 0 1 1 4.848 0 2.424 2.424 0 0 1-4.848 0z"/></clipPath><clipPath id="q2wsc"><path fill="#fff" d="M39.732 17.504a2.424 2.424 0 1 1 4.848 0 2.424 2.424 0 0 1-4.848 0z"/></clipPath><clipPath id="q2wsd"><path fill="#fff" d="M48.987 17.504a2.424 2.424 0 1 1 4.848 0 2.424 2.424 0 0 1-4.848 0z"/></clipPath></defs><g><g><g><g><text dominant-baseline="text-before-edge" style="line-height:32px;font-kerning:normal" fill="#28313b" font-family="'Ubuntu','Ubuntu-Bold'" font-size="15" font-style="none" font-weight="700" letter-spacing="-.2" transform="translate(0 -3)"><tspan>CC DSA</tspan></text></g></g></g><g><g><path fill="#387fcb" d="M21.222 17.504a2.424 2.424 0 1 1 4.848 0 2.424 2.424 0 0 1-4.848 0z"/><path fill="none" stroke="#387fcb" stroke-linecap="round" stroke-miterlimit="50" stroke-width="4" d="M21.222 17.504a2.424 2.424 0 1 1 4.848 0 2.424 2.424 0 0 1-4.848 0z" clip-path="url(&quot;#q2wsa&quot;)"/></g><g><path fill="#f7ce44" d="M30.477 17.504a2.424 2.424 0 1 1 4.848 0 2.424 2.424 0 0 1-4.848 0z"/><path fill="none" stroke="#f7ce44" stroke-linecap="round" stroke-miterlimit="50" stroke-width="4" d="M30.477 17.504a2.424 2.424 0 1 1 4.848 0 2.424 2.424 0 0 1-4.848 0z" clip-path="url(&quot;#q2wsb&quot;)"/></g><g><path fill="#e86a1c" d="M39.732 17.504a2.424 2.424 0 1 1 4.848 0 2.424 2.424 0 0 1-4.848 0z"/><path fill="none" stroke="#e86a1c" stroke-linecap="round" stroke-miterlimit="50" stroke-width="4" d="M39.732 17.504a2.424 2.424 0 1 1 4.848 0 2.424 2.424 0 0 1-4.848 0z" clip-path="url(&quot;#q2wsc&quot;)"/></g><g><path fill="#e81c1c" d="M48.987 17.504a2.424 2.424 0 1 1 4.848 0 2.424 2.424 0 0 1-4.848 0z"/><path fill="none" stroke="#e81c1c" stroke-linecap="round" stroke-miterlimit="50" stroke-width="4" d="M48.987 17.504a2.424 2.424 0 1 1 4.848 0 2.424 2.424 0 0 1-4.848 0z" clip-path="url(&quot;#q2wsd&quot;)"/></g></g></g></svg>