<svg xmlns="http://www.w3.org/2000/svg" width="26" height="20" viewBox="0 0 26 20"><g><g><path fill="#ff5912" d="M20.994 4.44V0h-1.609v4.44h-4.823v1.478h4.823v4.439h1.609V5.918h4.823V4.44zM7.648 8.41c-1.734-.048-3.383-1.786-3.682-3.88-.3-2.097.863-3.7 2.598-3.652 1.733.047 3.382 1.728 3.682 3.824.299 2.096-.864 3.755-2.598 3.707zm4.137 6.742c.053.207.083.42.083.639 0 1.807-1.267 3.22-4.9 3.22-2.583 0-4.449-1.505-4.449-3.313 0-1.771 2.315-3.246 4.898-3.22a6.07 6.07 0 0 1 1.675.247c1.403.897 2.41 1.404 2.693 2.427zM14.135.001h-6.73C4.386 0 1.545 2.104 1.545 4.54c0 2.49 2.058 4.5 5.128 4.5.213 0 .42-.004.624-.018-.2.351-.342.747-.342 1.157 0 .692.405 1.253.916 1.711-.386 0-.76.01-1.167.01-3.737 0-6.615 2.191-6.615 4.462C.09 18.601 3.244 20 6.982 20c4.262 0 6.616-2.226 6.616-4.462 0-1.794-.575-2.868-2.354-4.025-.608-.397-1.772-1.36-1.772-1.927 0-.664.206-.99 1.292-1.771 1.113-.801 1.901-1.926 1.901-3.235 0-1.558-.754-3.077-2.17-3.577h2.135z"/></g></g></svg>