<svg xmlns="http://www.w3.org/2000/svg" width="24" height="20" viewBox="0 0 24 20"><g><g><path fill="#ff5912" d="M20.61 4.376c0 .343-.319.625-.709.625h-1.419c-.39 0-.709-.282-.709-.625v-1.25c0-.344.32-.625.71-.625H19.9c.39 0 .71.281.71.625zm0 11.873c0 .688-.638 1.25-1.418 1.25H5.004c-.78 0-1.419-.562-1.419-1.25V8.75h2.22c-.103.402-.158.82-.158 1.25 0 3.132 2.894 5.682 6.45 5.682 3.558 0 6.452-2.55 6.452-5.682 0-.43-.055-.848-.158-1.25h2.22zM8.015 8.75h8.167c.155.391.24.812.24 1.25 0 2.1-1.94 3.807-4.323 3.807-2.384 0-4.323-1.708-4.323-3.807 0-.438.084-.86.24-1.25zM19.68.002H4.516C2.443.002.748 1.496.748 3.321v13.358c0 1.826 1.695 3.32 3.768 3.32H19.68c2.073 0 3.769-1.494 3.769-3.32V3.32c0-1.825-1.696-3.319-3.769-3.319z"/></g></g></svg>