<svg xmlns="http://www.w3.org/2000/svg" width="27" height="20" viewBox="0 0 27 20"><g><g><path fill="#ff5912" d="M27.19 2.368c-1.003.401-2.08.673-3.21.795 1.153-.625 2.04-1.614 2.457-2.793-1.08.578-2.276.999-3.549 1.224C21.868.614 20.416 0 18.808 0c-3.085 0-5.588 2.26-5.588 5.05 0 .395.05.78.145 1.15C8.72 5.989 4.602 3.98 1.845.924a4.663 4.663 0 0 0-.756 2.539c0 1.752.987 3.297 2.486 4.203a6.027 6.027 0 0 1-2.531-.632l-.001.064c0 2.445 1.927 4.486 4.483 4.95a6.135 6.135 0 0 1-2.524.086c.712 2.006 2.775 3.465 5.22 3.506-1.912 1.355-4.321 2.162-6.94 2.162-.451 0-.896-.024-1.333-.071C2.422 19.164 5.36 20 8.516 20c10.28 0 15.9-7.694 15.9-14.365 0-.22-.005-.437-.015-.654 1.092-.71 2.04-1.6 2.788-2.613z"/></g></g></svg>